<?xml version="1.0" encoding="utf-8"?>
<!-- Generator: Adobe Illustrator 18.0.0, SVG Export Plug-In . SVG Version: 6.00 Build 0)  -->
<!DOCTYPE svg PUBLIC "-//W3C//DTD SVG 1.1//EN" "http://www.w3.org/Graphics/SVG/1.1/DTD/svg11.dtd">
<svg version="1.1" id="Layer_1" xmlns="http://www.w3.org/2000/svg" xmlns:xlink="http://www.w3.org/1999/xlink" x="0px" y="0px"
	 viewBox="0 0 30 30" enable-background="new 0 0 30 30" xml:space="preserve">
<g>
	<polygon fill="#B82126" points="15,17.6 20.8,11 20.8,14.8 15,21 9.2,14.8 9.2,11 	"/>
	<path fill="#B82126" d="M30,14.9C30,6.6,23.4,0,14.9,0C6.6,0,0,6.6,0,14.9C0,23.4,6.6,30,14.9,30C23.4,30,30,23.4,30,14.9z
		 M1.8,14.9c0-7.2,5.8-13.1,13.1-13.1c7.2,0,13.3,5.8,13.3,13.1c0,7.2-6,13.3-13.3,13.3C7.6,28.2,1.8,22.1,1.8,14.9z"/>
</g>
</svg>
