<?xml-stylesheet type="text/css" href="../../../css/main.css"?>
  <svg version="1.1" id="Layer_1" xmlns="http://www.w3.org/2000/svg" xmlns:xlink="http://www.w3.org/1999/xlink" x="0px" y="0px" viewBox="0 0 30 30" enable-background="new 0 0 30 30" xml:space="preserve">
    <g>
      <path d="M15.1,2.5l7.1,3l1,0.4l1-0.5l3.6-1.8v21.4L23,27.5l-7.1-3l-1-0.4l-1,0.5l-6,3L2.3,25V3.5l4.9,2.1l1,0.4
    l1-0.5L15.1,2.5z M30,0l-6.9,3.5L15,0L8.1,3.5L0,0v26.5L8.1,30l6.9-3.5l8.1,3.5l6.9-3.5V0z" />
      <path d="M15,26.5l6.9,3c-0.3-7.7-4-9-6.9-9c-0.6,0-1.1,0.7-2.3,0.1c-2-1.1-1.4-4.2-4.6-4.4
    c-2.9-2.9-6.9-2.3-6.9-2.3H0v12.7L8.1,30L15,26.5z" />
      <polyline fill="none" stroke="#333333" stroke-width="3" stroke-miterlimit="10" points="1.1,7.6 8,10.8 15,10.4 23.1,17.4 
    28.8,22.1   " />
      <line fill="none" stroke="#333333" stroke-miterlimit="10" x1="18.5" y1="13.8" x2="28.8" y2="8.1" />
    </g>
  </svg>
