<?xml version="1.0" encoding="utf-8"?>
<!-- Generator: Adobe Illustrator 18.0.0, SVG Export Plug-In . SVG Version: 6.00 Build 0)  -->
<!DOCTYPE svg PUBLIC "-//W3C//DTD SVG 1.1//EN" "http://www.w3.org/Graphics/SVG/1.1/DTD/svg11.dtd">
<svg version="1.1" id="Layer_1" xmlns="http://www.w3.org/2000/svg" xmlns:xlink="http://www.w3.org/1999/xlink" x="0px" y="0px"
	 viewBox="0 0 30 30" enable-background="new 0 0 30 30" xml:space="preserve">
<g>
	<g>
		<g>
			<path fill="#FFFFFF" d="M15.1,2.5l7.1,3l1,0.4l1-0.5l3.6-1.8v21.4L23,27.5l-7.1-3l-1-0.4l-1,0.5l-6,3L2.3,25V3.5l4.9,2.1l1,0.4
				l1-0.5L15.1,2.5z M30,0l-6.9,3.5L15,0L8.1,3.5L0,0v26.5L8.1,30l6.9-3.5l8.1,3.5l6.9-3.5V0z"/>
		</g>
		<g>
			<path fill="#FFFFFF" d="M15,26.5l6.9,3c-0.3-7.7-4-9-6.9-9c-0.6,0-1.1,0.7-2.3,0.1c-2-1.1-1.4-4.2-4.6-4.4
				c-2.9-2.9-6.9-2.3-6.9-2.3H0v12.7L8.1,30L15,26.5z"/>
		</g>
		<g>
			<polygon fill="#FFFFFF" points="28.2,22.8 22.5,18.1 14.7,11.3 7.9,11.8 0.7,8.4 1.5,6.7 8.2,9.9 15.3,9.4 23.7,16.7 29.4,21.4 
							"/>
		</g>
	</g>
</g>
</svg>
